<?xml version="1.0" encoding="UTF-8" standalone="no"?>
<!-- Created with Inkscape (http://www.inkscape.org/) -->

<svg
   width="220.05125mm"
   height="42.363865mm"
   viewBox="0 0 220.05125 42.363865"
   version="1.1"
   id="svg1"
   xml:space="preserve"
   inkscape:version="1.4 (86a8ad7, 2024-10-11)"
   sodipodi:docname="intelbras-logo.svg"
   xmlns:inkscape="http://www.inkscape.org/namespaces/inkscape"
   xmlns:sodipodi="http://sodipodi.sourceforge.net/DTD/sodipodi-0.dtd"
   xmlns="http://www.w3.org/2000/svg"
   xmlns:svg="http://www.w3.org/2000/svg"><sodipodi:namedview
     id="namedview1"
     pagecolor="#ffffff"
     bordercolor="#000000"
     borderopacity="0.25"
     inkscape:showpageshadow="2"
     inkscape:pageopacity="0.0"
     inkscape:pagecheckerboard="0"
     inkscape:deskcolor="#d1d1d1"
     inkscape:document-units="mm"
     inkscape:zoom="0.50835204"
     inkscape:cx="230.15546"
     inkscape:cy="14.753555"
     inkscape:window-width="1920"
     inkscape:window-height="1009"
     inkscape:window-x="3832"
     inkscape:window-y="-8"
     inkscape:window-maximized="1"
     inkscape:current-layer="layer-MC4" /><defs
     id="defs1"><clipPath
       clipPathUnits="userSpaceOnUse"
       id="clipPath17984"><path
         d="M 0,6519.685 H 3685.039 V 0 H 0 Z"
         transform="translate(-2014.8314,-4732.3282)"
         id="path17984-1" /></clipPath><clipPath
       clipPathUnits="userSpaceOnUse"
       id="clipPath17986"><path
         d="M 0,6519.685 H 3685.039 V 0 H 0 Z"
         transform="translate(-1760.6998,-4680.6915)"
         id="path17986-9" /></clipPath><clipPath
       clipPathUnits="userSpaceOnUse"
       id="clipPath17988"><path
         d="M 0,6519.685 H 3685.039 V 0 H 0 Z"
         transform="translate(-1987.1155,-4727.815)"
         id="path17988-8" /></clipPath><clipPath
       clipPathUnits="userSpaceOnUse"
       id="clipPath17990"><path
         d="M 0,6519.685 H 3685.039 V 0 H 0 Z"
         transform="translate(-1639.1696,-4754.4703)"
         id="path17990-6" /></clipPath><clipPath
       clipPathUnits="userSpaceOnUse"
       id="clipPath17992"><path
         d="M 0,6519.685 H 3685.039 V 0 H 0 Z"
         transform="translate(-1686.0439,-4732.3282)"
         id="path17992-5" /></clipPath><clipPath
       clipPathUnits="userSpaceOnUse"
       id="clipPath17994"><path
         d="M 0,6519.685 H 3685.039 V 0 H 0 Z"
         transform="translate(-1630.3334,-4661.6983)"
         id="path17994-0" /></clipPath><clipPath
       clipPathUnits="userSpaceOnUse"
       id="clipPath17996"><path
         d="M 0,6519.685 H 3685.039 V 0 H 0 Z"
         transform="translate(-1838.3948,-4661.7027)"
         id="path17996-2" /></clipPath><clipPath
       clipPathUnits="userSpaceOnUse"
       id="clipPath17998"><path
         d="M 0,6519.685 H 3685.039 V 0 H 0 Z"
         transform="translate(-1898.4985,-4732.3282)"
         id="path17998-8" /></clipPath><clipPath
       clipPathUnits="userSpaceOnUse"
       id="clipPath18000"><path
         d="M 0,6519.685 H 3685.039 V 0 H 0 Z"
         transform="translate(-1833.0265,-4688.652)"
         id="path18000-6" /></clipPath><clipPath
       clipPathUnits="userSpaceOnUse"
       id="clipPath18002"><path
         d="M 0,6519.685 H 3685.039 V 0 H 0 Z"
         transform="translate(-2089.9244,-4704.6422)"
         id="path18002-0" /></clipPath></defs><g
     id="layer-MC4"
     inkscape:groupmode="layer"
     inkscape:label="尺寸标注"
     transform="matrix(0.26458333,0,0,0.26458335,-2326.1307,-949.80844)"><g
       id="g118"
       transform="matrix(1.2944252,0,0,1.2944252,-2706.3522,-1104.0774)"
       inkscape:export-filename="intelbras.pdf"
       inkscape:export-xdpi="96"
       inkscape:export-ydpi="96"
       style="fill:#029d39;fill-opacity:1"><path
         id="path17983-5"
         d="m 0,0 c -19.499,0 -35.322,-15.812 -35.322,-35.314 0,-19.502 15.823,-35.311 35.322,-35.311 6.439,0 12.474,1.726 17.662,4.731 v -4.736 h 17.654 v 35.316 C 35.316,-15.808 19.511,0 0,0 m 17.65,-35.314 v 0 -0.174 C 17.562,-45.16 9.7,-52.97 0,-52.97 c -9.743,0 -17.654,7.905 -17.654,17.656 0,9.75 7.911,17.659 17.654,17.659 9.749,0 17.662,-7.909 17.662,-17.659 z"
         style="fill:#029d39;fill-opacity:1;fill-rule:nonzero;stroke:none"
         transform="matrix(1.3333333,0,0,-1.3333333,9396.4836,3655.7689)"
         clip-path="url(#clipPath17984)" /><path
         id="path17985-7"
         d="m 0,0 c -1.791,-0.85 -3.785,-1.336 -5.907,-1.336 -7.58,0 -13.723,6.147 -13.723,13.733 v 21.581 h 13.367 c 0,0.004 2.211,7.782 2.211,17.659 L -19.63,51.634 V 72.29 c -9.878,0 -17.659,-2.609 -17.659,-2.609 0,0 0.008,-10.609 0,-18.044 V 12.431 12.397 c 0,-17.336 14.052,-31.386 31.382,-31.386 5.939,0 11.481,1.648 16.217,4.513 C 5.903,-10.484 2.356,-5.553 0,0"
         style="fill:#029d39;fill-opacity:1;fill-rule:nonzero;stroke:none"
         transform="matrix(1.3333333,0,0,-1.3333333,9057.6416,3724.6178)"
         clip-path="url(#clipPath17986)" /><path
         id="path17987-5"
         d="m 0,0 c -4.731,2.862 -10.287,4.513 -16.226,4.513 -17.33,0 -31.383,-14.056 -31.383,-31.387 v -0.037 -39.201 h 17.651 l 0.009,39.238 h -0.009 c 0,7.582 6.16,13.732 13.732,13.732 2.121,0 4.117,-0.485 5.9,-1.337 C -7.954,-8.927 -4.418,-3.994 0,0"
         style="fill:#029d39;fill-opacity:1;fill-rule:nonzero;stroke:none"
         transform="matrix(1.3333333,0,0,-1.3333333,9359.5286,3661.7865)"
         clip-path="url(#clipPath17988)" /><path
         id="path17989-4"
         d="m 0,0 c -5.333,0 -9.655,-4.324 -9.655,-9.651 0,-5.333 4.322,-9.657 9.655,-9.657 5.331,0 9.654,4.324 9.654,9.657 C 9.654,-4.324 5.331,0 0,0"
         style="fill:#029d39;fill-opacity:1;fill-rule:nonzero;stroke:none"
         transform="matrix(1.3333333,0,0,-1.3333333,8895.6016,3626.2461)"
         clip-path="url(#clipPath17990)" /><path
         id="path17991-1"
         d="m 0,0 c -17.331,0 -31.391,-14.056 -31.391,-31.387 0,-0.012 0.008,-0.028 0.008,-0.037 V -70.63 h 17.654 v 39.243 c 0,7.582 6.147,13.732 13.729,13.732 7.589,0 13.735,-6.15 13.735,-13.732 V -70.63 h 17.66 v 39.243 C 31.395,-14.056 17.339,0 0,0"
         style="fill:#029d39;fill-opacity:1;fill-rule:nonzero;stroke:none"
         transform="matrix(1.3333333,0,0,-1.3333333,8958.1006,3655.7689)"
         clip-path="url(#clipPath17992)" /><path
         id="path17993-2"
         d="M 0,0 H 17.662 V 70.63 C 7.787,70.63 0,68.021 0,68.021 Z"
         style="fill:#029d39;fill-opacity:1;fill-rule:nonzero;stroke:none"
         transform="matrix(1.3333333,0,0,-1.3333333,8883.8196,3749.9421)"
         clip-path="url(#clipPath17994)" /><path
         id="path17995-0"
         d="m 0,0 h 17.656 v 91.278 c -9.663,0 -17.332,-2.5 -17.645,-2.604 z"
         style="fill:#029d39;fill-opacity:1;fill-rule:nonzero;stroke:none"
         transform="matrix(1.3333333,0,0,-1.3333333,9161.2346,3749.9362)"
         clip-path="url(#clipPath17996)" /><path
         id="path17997-0"
         d="m 0,0 c -6.435,0 -12.459,-1.726 -17.654,-4.734 l -0.004,25.386 c -9.683,0 -17.349,-2.504 -17.644,-2.603 0,0 -0.014,-53.322 -0.014,-53.363 0,-19.502 15.811,-35.311 35.316,-35.311 19.511,0 35.315,15.809 35.315,35.311 C 35.315,-15.812 19.511,0 0,0 m 0,-52.97 v 0 c -9.751,0 -17.658,7.905 -17.658,17.656 h 0.004 v 0.13 c 0.069,9.699 7.953,17.525 17.654,17.525 9.753,0 17.662,-7.905 17.662,-17.655 C 17.662,-45.065 9.753,-52.97 0,-52.97"
         style="fill:#029d39;fill-opacity:1;fill-rule:nonzero;stroke:none"
         transform="matrix(1.3333333,0,0,-1.3333333,9241.3736,3655.7689)"
         clip-path="url(#clipPath17998)" /><path
         id="path17999-1"
         d="m 0,0 c -9.109,3.616 -17.073,3.878 -17.073,3.878 -2.211,-8.504 -10.455,-14.225 -19.394,-13.047 -2.001,0.264 -3.885,0.861 -5.599,1.717 L -2.125,23.191 C -7.054,33.786 -17.11,41.708 -29.551,43.342 -48.88,45.891 -66.617,32.283 -69.16,12.952 -71.704,-6.381 -58.097,-24.112 -38.767,-26.655 -20.903,-29.01 -4.408,-17.004 0,0 m -51.67,10.649 v 0 c 1.27,9.675 10.15,16.481 19.818,15.207 2.003,-0.264 3.885,-0.859 5.602,-1.716 L -51.463,4.798 c -0.386,1.875 -0.47,3.84 -0.207,5.851"
         style="fill:#029d39;fill-opacity:1;fill-rule:nonzero;stroke:none"
         transform="matrix(1.3333333,0,0,-1.3333333,9154.0766,3714.0038)"
         clip-path="url(#clipPath18000)" /><path
         id="path18001-4"
         d="m 0,0 -11.617,0.01 c -2.772,0 -5.009,2.241 -5.009,5.013 0,2.763 2.237,5.008 5.009,5.008 H 13.75 c 0.106,0.316 2.6,7.924 2.6,17.584 h -29.158 c -11.866,0 -21.476,-9.611 -21.476,-21.471 0,-11.861 9.61,-21.484 21.476,-21.484 h 11.621 c 2.762,0 5.001,-2.247 5.001,-5.013 0,-2.764 -2.239,-5.009 -5.001,-5.009 h -28.785 c -0.102,-0.311 -2.6,-7.918 -2.6,-17.577 H 0 c 11.86,0 21.478,9.609 21.478,21.472 C 21.478,-9.612 11.86,0 0,0"
         style="fill:#029d39;fill-opacity:1;fill-rule:nonzero;stroke:none"
         transform="matrix(1.3333333,0,0,-1.3333333,9496.6076,3692.6836)"
         clip-path="url(#clipPath18002)" /></g></g></svg>
