<?xml version="1.0" encoding="UTF-8" standalone="no"?>
<svg
   width="45mm"
   height="45mm"
   viewBox="0 0 45 45"
   version="1.1"
   id="svg1"
   xmlns:xlink="http://www.w3.org/1999/xlink"
   xmlns="http://www.w3.org/2000/svg"><defs
     id="defs1"><clipPath
       clipPathUnits="userSpaceOnUse"
       id="clipPath17990"><path
         d="M 0,6519.685 H 3685.039 V 0 H 0 Z"
         transform="translate(-1639.1696,-4754.4703)"
         id="path17990-6" /></clipPath><clipPath
       clipPathUnits="userSpaceOnUse"
       id="clipPath17994"><path
         d="M 0,6519.685 H 3685.039 V 0 H 0 Z"
         transform="translate(-1630.3334,-4661.6983)"
         id="path17994-0" /></clipPath></defs><g
     id="layer1"
     transform="translate(-202.83348,-110.95304)"><g
       id="g1"
       transform="translate(0,0.08780608)"><path
         id="path17989-4"
         d="m 0,0 c -5.333,0 -9.655,-4.324 -9.655,-9.651 0,-5.333 4.322,-9.657 9.655,-9.657 5.331,0 9.654,4.324 9.654,9.657 C 9.654,-4.324 5.331,0 0,0"
         style="fill:#029d39;fill-opacity:1;fill-rule:nonzero;stroke:none"
         transform="matrix(0.45664442,0,0,-0.45664442,225.33599,112.18332)"
         clip-path="url(#clipPath17990)" /><path
         id="path17993-2"
         d="M 0,0 H 17.662 V 70.63 C 7.787,70.63 0,68.021 0,68.021 Z"
         style="fill:#029d39;fill-opacity:1;fill-rule:nonzero;stroke:none"
         transform="matrix(0.45664442,0,0,-0.45664442,221.30085,154.54715)"
         clip-path="url(#clipPath17994)" /></g></g></svg>
